<svg xmlns="http://www.w3.org/2000/svg"><symbol id="logo" viewBox="0 0 40 40"><defs><style>.acls-1{fill:#231f20}</style></defs><path class="acls-1" d="M19.15 6.86c-1 0-1.72.89-1.72 2.44 0 2.17.83 3.28 2.19 3.28a1.45 1.45 0 0 0 1-.44 3.24 3.24 0 0 0 .61-2c.03-1.81-.58-3.28-2.08-3.28zm1.23 20.56a1.45 1.45 0 0 0-1 .44 3.24 3.24 0 0 0-.61 2c0 1.78.61 3.25 2.11 3.25 1 0 1.72-.89 1.72-2.44-.03-2.14-.86-3.25-2.22-3.25zm-3.8-7.67a1.49 1.49 0 0 0 1 1.43 12 12 0 0 0 4.14.56 1.36 1.36 0 0 0 .78-.22 2 2 0 0 0 .91-1.25 1.48 1.48 0 0 0-1-1.43 12 12 0 0 0-4.14-.56 1.36 1.36 0 0 0-.78.22 2 2 0 0 0-.91 1.25z"/><path class="acls-1" d="M0 0v40h40V0H0zm24.37 9.33a3.88 3.88 0 0 1-1.56 3.44 6.91 6.91 0 0 1-3.17 1.11c-.14 0-1 .06-1.11.06a.46.46 0 0 0-.39.47.87.87 0 0 0 1 .69 29.5 29.5 0 0 1 4.86.56 2.91 2.91 0 0 1 2.17 2.86 5.74 5.74 0 0 1-.76 2.48A6 6 0 0 1 24 22.42a2.31 2.31 0 0 1 1.25 1.84.64.64 0 0 1-.14.53A22.85 22.85 0 0 0 23.07 26a.11.11 0 0 0 0 .19A3.8 3.8 0 0 1 25.8 30a3.89 3.89 0 0 1-1.64 3.25 7.57 7.57 0 0 1-3.83 1.14 9.16 9.16 0 0 1-3.05-.53 4.88 4.88 0 0 0-1.75-.33 1.93 1.93 0 0 0-1.67.61.75.75 0 0 1-.56-.31 4.28 4.28 0 0 1 .78-1.83 1.18 1.18 0 0 1 1-.39h.56a.09.09 0 0 0 .06-.08c0-.19-.08-.64-.08-.83a3.88 3.88 0 0 1 1.56-3.44 6.92 6.92 0 0 1 3.17-1.11c.14 0 1-.06 1.11-.06a.46.46 0 0 0 .39-.47.87.87 0 0 0-1-.69 29.57 29.57 0 0 1-4.85-.59 2.92 2.92 0 0 1-2.17-2.86 4.85 4.85 0 0 1 .76-2.48A6 6 0 0 1 16 17.58a2.38 2.38 0 0 1-1.29-1.84.64.64 0 0 1 .19-.52c.39-.21 1.58-.89 2.08-1.25.07-.06.11-.14 0-.19A3.8 3.8 0 0 1 14.2 10a3.89 3.89 0 0 1 1.64-3.25 7.58 7.58 0 0 1 3.83-1.14 9.16 9.16 0 0 1 3.05.53 4.89 4.89 0 0 0 1.75.33 1.93 1.93 0 0 0 1.67-.61.75.75 0 0 1 .56.31A4.28 4.28 0 0 1 25.92 8a1.18 1.18 0 0 1-1 .39h-.58a.09.09 0 0 0-.05.08c.02.22.08.66.08.86z"/></symbol></svg>